PathFileType	4	(X/Y/Z)	../motion_lab\static\Static03\task.trc
DataRate	CameraRate	NumFrames	NumMarkers	Units	OrigDataRate	OrigDataStartFrame	OrigNumFrames
200.000000	200.000000	4	40	mm	200.000000	389	445
Frame#	Time	C7			RBAK			CLAV			STRN			T10			RASI			RPSI			LPSI			LASI			PE01			PE02			PE03			RTH1			RTH2			RTH3			RKNE			RMKNE			RTB1			RTB2			RTB3			RANK			RMMA			RHEE			RD5M			RTOE			LTH1			LTH2			LTH3			LKNE			LMKNE			LTB1			LTB2			LTB3			LANK			LMMA			LHEE			LTOE			LD5M			LGT			RGT			
		X1	Y1	Z1	X2	Y2	Z2	X3	Y3	Z3	X4	Y4	Z4	X5	Y5	Z5	X6	Y6	Z6	X7	Y7	Z7	X8	Y8	Z8	X9	Y9	Z9	X10	Y10	Z10	X11	Y11	Z11	X12	Y12	Z12	X13	Y13	Z13	X14	Y14	Z14	X15	Y15	Z15	X16	Y16	Z16	X17	Y17	Z17	X18	Y18	Z18	X19	Y19	Z19	X20	Y20	Z20	X21	Y21	Z21	X22	Y22	Z22	X23	Y23	Z23	X24	Y24	Z24	X25	Y25	Z25	X26	Y26	Z26	X27	Y27	Z27	X28	Y28	Z28	X29	Y29	Z29	X30	Y30	Z30	X31	Y31	Z31	X32	Y32	Z32	X33	Y33	Z33	X34	Y34	Z34	X35	Y35	Z35	X36	Y36	Z36	X37	Y37	Z37	X38	Y38	Z38	X39	Y39	Z39	X40	Y40	Z40	

390	1.945	-8.974240303039554	1353.991943359375	289.1627807617189	74.03137969970706	1257.024291992188	331.5884094238282	-5.758812427520754	1289.145874023438	152.0037689208985	-1.16399371623993	1109.877807617188	62.809196472168	5.510702133178713	1054.698974609375	277.813934326172	117.7370910644532	885.6179199218755	102.1586151123047	57.43135452270511	921.4852905273442	299.6719360351564	-27.84339141845705	918.4513549804692	297.5718994140626	-104.8327713012696	884.7421264648442	94.65400695800784	12.11663150787354	953.8532714843755	287.0300292968751	36.84845352172853	899.1379394531255	312.1264648437501	-14.05828475952149	896.8933105468755	309.0905761718751	165.4161529541016	598.2207641601565	209.2256011962892	154.3414306640626	519.2996215820315	202.0556030273439	158.6299438476563	570.0957031250002	168.0138244628907	144.2179870605469	452.7493286132815	207.5742492675782	32.67956542968751	446.4000549316409	192.6407928466798	161.5248260498047	298.8818359375001	225.8479003906251	167.4576416015626	263.0781555175782	275.4514770507814	163.1566772460938	222.3895874023439	245.6122436523439	152.9097747802735	59.40146636962893	300.1286010742189	79.19330596923831	76.85704040527347	267.3166503906251	103.2904281616212	27.8537940979004	333.8821411132814	200.2719268798829	14.03386878967286	199.6439514160157	155.1548004150391	30.43981361389162	151.4349975585938	-167.3953094482422	622.5164184570315	187.0308227539063	-158.2611694335938	570.7586669921877	217.3426818847657	-164.7128906250001	597.5210571289065	143.3427734375001	-148.1522369384766	445.1820983886721	190.5557556152344	-45.99843215942384	437.7736816406252	177.9158477783204	-183.3262939453126	299.627166748047	267.2989501953126	-183.9208679199219	220.2105712890626	274.8167114257814	-183.2585144042969	246.9350738525392	233.3287048339845	-185.7411193847657	70.56923675537112	252.4581146240236	-105.9270095825196	75.07779693603518	238.7696075439454	-148.757553100586	35.96081924438478	303.9790039062501	-176.9662475585938	29.62356185913087	111.4340515136719	-223.6687622070314	18.06052780151368	162.2265014648438	-193.4054718017579	788.8363647460942	177.0284576416016	202.7795867919923	795.8418579101567	180.0308837890626	
391	1.95	-8.960871696472172	1353.995361328125	289.1508789062501	74.04984283447268	1256.977416992188	331.5478820800782	-5.741539955139162	1289.169311523438	151.9628601074219	-1.14928424358368	1109.919921875	62.74621963500979	5.531342506408693	1054.707275390625	277.7961730957032	117.7637481689454	885.5800170898442	102.1084060668946	57.45679473876956	921.4801635742192	299.6501770019532	-27.81776618957521	918.4671020507817	297.5594787597657	-104.8359832763672	884.7277221679692	94.6504821777344	12.14795684814454	953.8444213867192	287.0146484375001	36.67494201660158	898.5222167968755	311.998504638672	-14.03958606719971	896.9130249023442	309.0820922851564	165.4215545654297	598.2119750976565	209.234344482422	154.3592529296876	519.2946777343752	202.0632324218751	158.6278686523438	570.0899047851565	168.0205535888672	144.2246856689454	452.7386474609377	207.580535888672	32.67442703247072	446.3968811035159	192.6540985107423	161.5543823242188	298.9161071777345	225.7902069091798	167.4754180908204	263.1410217285157	275.4282226562501	163.1656494140626	222.390350341797	245.6278533935548	152.8757019042969	59.37866973876956	300.1394958496095	79.19645690917972	76.88029479980472	267.3213195800782	103.2859268188477	27.86482048034669	333.8814392089845	200.2583160400392	14.03147220611573	199.659881591797	155.1471862792969	30.43359947204591	151.4394531250001	-167.3591766357422	622.518737792969	187.0400085449219	-158.2409057617188	570.7593994140627	217.3742523193361	-164.6881713867188	597.527038574219	143.3598937988282	-148.335189819336	445.1187744140627	190.4571990966797	-46.10326766967775	437.675476074219	178.0108032226563	-183.3566436767579	299.6617736816407	267.3000793457032	-183.9248962402344	220.2499847412111	274.8212280273439	-183.2621612548829	246.9381408691407	233.3328857421876	-185.7476348876954	70.59613037109378	252.4759521484376	-105.9182891845704	75.1081466674805	238.7367706298829	-148.7584838867188	35.97160720825197	303.9703369140626	-176.9676971435547	29.62022399902345	111.4428405761719	-223.8628692626954	18.35395240783692	162.569076538086	-193.3814697265626	788.9118041992192	177.0328063964844	202.7934570312501	795.859252929688	180.0062713623047	
392	1.955	-8.960691452026371	1353.998168945313	289.1252441406251	74.06301879882815	1257.01171875	331.5333251953126	-5.709764480590822	1289.200561523438	151.9307098388672	-1.115641713142395	1109.948120117188	62.69169616699222	5.530615329742433	1054.675048828125	277.7622985839845	117.7546691894532	885.6082153320317	102.1109313964844	57.486686706543	921.5168457031255	299.633026123047	-27.80167198181154	918.4860839843755	297.556121826172	-104.8533020019532	884.7148437500005	94.64382934570315	12.14361000061036	953.9014282226567	287.0001220703126	36.69212722778322	898.6565551757817	311.9835510253907	-14.01089477539063	896.8986816406255	309.084442138672	165.4217529296876	598.197937011719	209.2376861572267	154.3447875976563	519.294616699219	202.0652770996095	158.6418914794922	570.0952758789065	168.0162506103516	144.2317810058594	452.7574768066409	207.5774841308595	32.66938400268556	446.392517089844	192.657440185547	161.4587402343751	298.8346252441407	225.9020080566407	167.4761199951172	263.1304626464845	275.4203491210939	163.1996002197266	222.4322662353517	245.6502380371095	152.8874511718751	59.36736297607425	300.1390075683595	79.21124267578128	76.94407653808597	267.315887451172	103.2864074707032	27.87299537658693	333.8903198242189	200.2644042968751	14.02232933044434	199.6410217285157	155.1547851562501	30.43173599243165	151.4382019042969	-167.3980865478516	622.5017089843752	187.0522003173829	-158.2192840576172	570.7316894531252	217.3971252441407	-164.5906677246094	597.5718383789065	143.4165039062501	-148.3306579589844	445.130798339844	190.4660186767579	-46.07495880126955	437.7248535156252	177.9694976806641	-183.3575592041016	299.6983947753907	267.2974548339845	-183.9201965332032	220.2528839111329	274.8269348144532	-183.2601318359376	246.9303131103517	233.3377685546876	-185.7390441894532	70.56389617919925	252.4677581787111	-105.9160461425782	75.10921478271487	238.7303619384767	-148.7714385986329	35.98004150390626	303.977996826172	-176.9612884521485	29.62002372741701	111.4281311035157	-223.6580505371095	18.04771041870118	162.2335662841797	-193.3572540283204	788.922485351563	177.0540771484376	202.7965087890626	795.8734741210942	179.9753723144532	
393	1.96	-8.943468093872074	1354.004028320313	289.109344482422	74.0906677246094	1256.996948242188	331.4881591796876	-5.694518089294435	1289.210571289063	151.8988494873047	-1.064704656600953	1109.979736328125	62.63453292846683	5.55668878555298	1054.693603515625	277.7407226562501	117.7356262207032	885.6243286132817	102.1130142211915	57.51416778564456	921.529907226563	299.6217041015626	-27.77823448181154	918.505737304688	297.5517578125001	-104.8459701538087	884.7124023437505	94.62693786621097	12.18542766571046	953.8639526367192	286.9716186523439	36.74668884277345	898.855102539063	311.9859924316407	-14.02087783813477	896.9212036132817	309.089813232422	165.4115905761719	598.226257324219	209.2257690429689	154.3566436767579	519.288024902344	202.0567016601564	158.6392059326172	570.0928344726565	168.0218963623047	144.2299346923829	452.7492980957034	207.5735015869142	32.66466140747072	446.3885498046877	192.6702117919923	161.5459289550782	298.3243408203126	226.0330505371095	167.4639129638672	263.1375732421876	275.4244689941407	163.2020568847657	222.4087371826173	245.6732177734376	152.8810424804688	59.36292266845706	300.1445617675782	79.1979904174805	76.89994812011722	267.3156127929689	103.291358947754	27.86267662048341	333.885711669922	200.2710723876954	14.0397481918335	199.6533050537111	155.1531524658204	30.43317794799806	151.4408416748047	-167.3562469482422	622.4776000976565	187.0506744384766	-158.2115173339844	570.755310058594	217.4027557373048	-164.6844635009766	597.5274047851565	143.3850555419922	-148.3224792480469	445.1328735351565	190.4763793945313	-46.09095001220705	437.636169433594	178.0642852783204	-183.3802947998047	299.6998291015626	267.304168701172	-183.9232635498047	220.2522583007814	274.8296508789064	-183.2595367431641	246.9236145019532	233.3359832763673	-185.7368774414063	70.5643005371094	252.4622955322267	-105.9070358276368	75.13102722167972	238.7216949462892	-148.761947631836	35.97097778320314	303.9677734375001	-176.9618835449219	29.63051605224611	111.4318084716797	-223.8802490234376	18.33688735961915	162.5826873779297	-193.3575897216798	788.9262695312505	177.0506896972657	202.8004302978517	795.8862304687505	179.9481201171876	
